<svg width="1280" height="400" viewBox="0 0 1280 400" xmlns="http://www.w3.org/2000/svg">

<defs>

<linearGradient id="bg" x1="0%" y1="0%" x2="100%" y2="100%">
<stop offset="0%" stop-color="#0D1117"/>
<stop offset="100%" stop-color="#161B22"/>
</linearGradient>

<linearGradient id="blue" x1="0%" y1="0%" x2="100%" y2="0%">
<stop offset="0%" stop-color="#58A6FF"/>
<stop offset="100%" stop-color="#00D1FF"/>
</linearGradient>

</defs>

<rect width="1280" height="400" fill="url(#bg)"/>

<circle cx="980" cy="90" r="6" fill="#58A6FF"/>
<circle cx="1080" cy="150" r="6" fill="#58A6FF"/>
<circle cx="1180" cy="100" r="6" fill="#58A6FF"/>
<circle cx="1110" cy="250" r="6" fill="#58A6FF"/>
<circle cx="1000" cy="300" r="6" fill="#58A6FF"/>

<line x1="980" y1="90" x2="1080" y2="150" stroke="#30363D" stroke-width="2"/>
<line x1="1080" y1="150" x2="1180" y2="100" stroke="#30363D" stroke-width="2"/>
<line x1="1080" y1="150" x2="1110" y2="250" stroke="#30363D" stroke-width="2"/>
<line x1="1110" y1="250" x2="1000" y2="300" stroke="#30363D" stroke-width="2"/>
<line x1="980" y1="90" x2="1000" y2="300" stroke="#30363D" stroke-width="2"/>

<text
x="80"
y="120"
font-size="58"
font-family="Inter,Segoe UI,Arial"
font-weight="700"
fill="white">

YASH PATKAR

</text>

<text
x="80"
y="170"
font-size="28"
font-family="Inter,Segoe UI,Arial"
fill="#58A6FF">

AI Software Engineer

</text>

<text
x="80"
y="225"
font-size="22"
font-family="Inter,Segoe UI,Arial"
fill="#C9D1D9">

Building AI-powered backend systems,

</text>

<text
x="80"
y="260"
font-size="22"
font-family="Inter,Segoe UI,Arial"
fill="#C9D1D9">

Autonomous AI Agents

</text>

<text
x="80"
y="295"
font-size="22"
font-family="Inter,Segoe UI,Arial"
fill="#C9D1D9">

Production-ready Products

</text>

<rect
x="80"
y="330"
rx="20"
ry="20"
width="520"
height="40"
fill="#21262D"/>

<text
x="105"
y="357"
font-size="18"
font-family="JetBrains Mono,Consolas"
fill="url(#blue)">

Python • Django • LangGraph • AWS • Docker

</text>

</svg>
